<?xml version="1.0" encoding="utf-8"?>
<!-- Generator: Adobe Illustrator 16.0.3, SVG Export Plug-In . SVG Version: 6.00 Build 0)  -->
<!DOCTYPE svg PUBLIC "-//W3C//DTD SVG 1.1//EN" "http://www.w3.org/Graphics/SVG/1.1/DTD/svg11.dtd">
<svg version="1.1" id="Capa_1" xmlns="http://www.w3.org/2000/svg" xmlns:xlink="http://www.w3.org/1999/xlink" x="0px" y="0px"
	 width="612px" height="792px" viewBox="0 0 612 792" enable-background="new 0 0 612 792" xml:space="preserve">
<g>
	<g>
		<g>
			<path fill="#0B4982" d="M306,90C187.393,90,91.234,186.158,91.234,304.764c0,9.08,0.729,17.929,1.839,26.702
				c18.351,167.76,198.981,361.109,198.981,361.109c3.218,3.602,6.321,5.823,9.309,7.432l0.154,0.076l6.015,1.916l6.016-1.916
				l0.153-0.076c2.988-1.609,6.092-3.946,9.31-7.432c0,0,178.024-193.695,195.954-361.491c1.072-8.658,1.801-17.431,1.801-26.357
				C520.727,186.158,424.607,90,306,90z M306,442.91c-76.16,0-138.145-61.985-138.145-138.145S229.84,166.621,306,166.621
				c76.16,0,138.106,61.985,138.106,138.145S382.16,442.91,306,442.91z"/>
		</g>
	</g>
</g>
</svg>
