<svg baseProfile="tiny" xmlns="http://www.w3.org/2000/svg" preserveAspectRatio="xMinYMin meet" viewBox="0 0 1460 800" width="1460" height="800"><g fill="#0B4982"><path d="M207.47 236.098l-50.773-44.44L11.532 316.096c5.276 4.896 12.4 7.943 20.256 7.943h351.36c7.827 0 14.922-3.05 20.17-7.945L258.24 191.655 207.47 236.1zM403.406 38.842c-5.278-4.925-12.37-7.944-20.257-7.944H31.786c-7.827 0-14.92 3.05-20.197 8.002l195.88 167.883 195.936-167.94zM2.27 56.635v243.543l141.674-120.394zm268.723 123.15L412.67 300.177V56.548z"/></g><g transform="translate(420)"><path fill="#0B4982" d="M159.138 256.452c37.217 36.944 80.295 72.236 97.208 55.195 24.215-24.393 39.12-45.614 92.854-2.76 53.733 42.872 12.695 71.726-10.757 95.36-27.064 27.27-128.433 1.912-228.91-97.803C9.063 206.71-17.07 105.54 10.013 78.258 33.474 54.62 62.02 13.378 105.27 66.8c43.27 53.395 22.16 68.462-2.054 92.86-16.904 17.035 18.7 59.84 55.924 96.792zm53.966-176.25s-11.227-1.753-19.087 6.114c-8.092 8.092-8.445 22.032.082 30.552 5.037 5.04 12.143 6.113 12.143 6.113 13.853 2.6 34.728 7 56.944 29.208 22.21 22.208 26.607 43.084 29.205 56.942 0 0 1.074 7.105 6.113 12.145 8.52 8.52 22.46 8.174 30.552.082 7.86-7.86 6.113-19.087 6.113-19.087-4.397-28.058-17.998-57.365-41.35-80.716-23.358-23.35-52.668-36.945-80.716-41.35zm105.31 16.756c40.72 40.72 58.08 86.933 52.43 124.38 0 0-1.973 11.858 5.772 19.603 8.718 8.72 22.535 8.217 30.694.064 5.243-5.243 6.386-13.776 6.386-13.776 4.672-32.36-1.203-97.464-64.647-160.9C285.603 2.886 220.51-2.99 188.145 1.676c0 0-8.527 1.137-13.777 6.386-8.16 8.16-8.657 21.978.06 30.694 7.746 7.746 19.604 5.773 19.604 5.773 37.45-5.65 83.66 11.71 124.38 52.427z"/></g><g transform="translate(840)"><g><g><g><path fill="#0B4982" d="M306 90C187.393 90 91.234 186.158 91.234 304.764c0 9.08.73 17.93 1.84 26.702 18.35 167.76 198.98 361.11 198.98 361.11 3.218 3.6 6.32 5.822 9.31 7.43l.153.077 6.015 1.916 6.016-1.918.153-.076c2.99-1.61 6.094-3.946 9.31-7.432 0 0 178.026-193.695 195.956-361.49 1.072-8.66 1.8-17.432 1.8-26.358C520.728 186.156 424.608 90 306 90zm0 352.91c-76.16 0-138.145-61.985-138.145-138.145S229.84 166.62 306 166.62c76.16 0 138.106 61.986 138.106 138.146S382.16 442.91 306 442.91z"/></g></g></g></g></svg>