<svg baseProfile="tiny" xmlns="http://www.w3.org/2000/svg" preserveAspectRatio="xMinYMin meet" viewBox="0 0 935 495" width="935" height="495"><g><g fill="#030104"><path d="M7 9L5.268 7.484.316 11.73c.18.166.423.27.69.27h11.987c.267 0 .51-.104.688-.27L8.734 7.483 7 9zm6.684-6.73c-.18-.167-.422-.27-.69-.27H1.006c-.267 0-.51.104-.69.273L7 8l6.684-5.73zM0 2.878v8.308L4.833 7.08zM9.167 7.08L14 11.185v-8.31z"/></g></g><g transform="translate(20)"><path d="M159.138 256.452c37.217 36.944 80.295 72.236 97.207 55.195 24.215-24.392 39.12-45.614 92.854-2.76 53.732 42.873 12.694 71.726-10.76 95.362-27.063 27.267-128.43 1.91-228.91-97.806C9.064 206.71-17.07 105.54 10.016 78.258 33.475 54.62 62.02 13.378 105.268 66.8c43.27 53.394 22.16 68.462-2.054 92.86-16.904 17.035 18.7 59.84 55.924 96.792zm53.966-176.25s-11.227-1.753-19.088 6.114c-8.092 8.092-8.445 22.032.082 30.552 5.04 5.04 12.145 6.113 12.145 6.113 13.852 2.6 34.728 7 56.944 29.208 22.21 22.208 26.608 43.084 29.206 56.943 0 0 1.074 7.107 6.113 12.146 8.52 8.52 22.46 8.174 30.552.082 7.86-7.86 6.113-19.087 6.113-19.087-4.397-28.056-17.997-57.364-41.35-80.715-23.357-23.35-52.666-36.945-80.715-41.35zm105.31 16.756c40.72 40.72 58.08 86.932 52.43 124.38 0 0-1.973 11.858 5.772 19.603 8.718 8.72 22.535 8.217 30.695.064 5.245-5.243 6.387-13.777 6.387-13.777 4.672-32.36-1.203-97.464-64.647-160.9C285.604 2.885 220.51-2.99 188.146 1.675c0 0-8.527 1.137-13.777 6.386-8.16 8.16-8.657 21.98.06 30.696 7.746 7.746 19.604 5.773 19.604 5.773 37.45-5.65 83.66 11.71 124.38 52.427z"/></g><g transform="translate(440)"><g><g><g><path d="M242.816 0C148.7 0 72.396 76.303 72.396 170.42c0 7.204.578 14.226 1.46 21.187 14.56 133.12 157.894 286.546 157.894 286.546 2.554 2.858 5.016 4.62 7.387 5.897l.122.06 4.77 1.52 4.774-1.52.122-.06c2.37-1.277 4.834-3.13 7.387-5.897 0 0 141.266-153.7 155.493-286.85.85-6.87 1.43-13.83 1.43-20.914C413.204 76.3 336.932 0 242.816 0zm0 280.04c-60.434 0-109.62-49.186-109.62-109.62S182.382 60.8 242.816 60.8s109.59 49.186 109.59 109.62-49.156 109.62-109.59 109.62z" fill="#010002"/></g></g></g></g></svg>